<svg width="22" height="22" viewBox="0 0 22 22" fill="none" xmlns="http://www.w3.org/2000/svg">
<g clip-path="url(#clip0_74_387)">
<path d="M9.9513 12.0487C8.8788 10.9762 8.0703 9.77533 7.53314 8.55708C7.41947 8.2995 7.48639 7.99792 7.6853 7.799L8.43605 7.04917C9.05114 6.43408 9.05114 5.56417 8.51397 5.027L7.4378 3.95083C6.72189 3.23492 5.56139 3.23492 4.84547 3.95083L4.2478 4.5485C3.56855 5.22775 3.2853 6.20767 3.46864 7.17933C3.92147 9.57458 5.31297 12.1972 7.55789 14.4421C9.8028 16.687 12.4254 18.0785 14.8206 18.5313C15.7923 18.7147 16.7722 18.4314 17.4515 17.7522L18.0482 17.1554C18.7641 16.4395 18.7641 15.279 18.0482 14.5631L16.973 13.4878C16.4358 12.9507 15.565 12.9507 15.0287 13.4878L14.201 14.3165C14.0021 14.5154 13.7005 14.5823 13.4429 14.4687C12.2246 13.9306 11.0238 13.1212 9.9513 12.0487Z" stroke="#A2A2A7" stroke-width="1.3" stroke-linecap="round" stroke-linejoin="round"/>
</g>
<defs>
<clipPath id="clip0_74_387">
<rect width="22" height="22" fill="white"/>
</clipPath>
</defs>
</svg>
