<svg width="98" height="90" viewBox="0 0 98 90" fill="none" xmlns="http://www.w3.org/2000/svg">
<path fill-rule="evenodd" clip-rule="evenodd" d="M5.14162 63.0805C2.26095 67.7317 -4.03618 77.2851 3.75245 81.8138C15.8066 88.823 21.5734 73.748 19.5888 63.076C18.7642 55.4037 14.362 38.1802 24.7336 48.8997C55.887 63.3499 61.5189 5.98542 31.5357 10.1298C25.2608 10.9969 20.6385 18.6284 14.6575 18.6446C10.3641 18.6562 9.35695 13.4272 7.88054 10.116C7.22063 8.63612 5.53403 6.08383 3.65228 8.10213C2.25245 9.60352 2.90502 12.302 3.4089 14.4626C6.54139 27.8934 11.0954 53.4674 5.14162 63.0806V63.0805ZM43.72 19.5136C42.258 19.4331 42.0906 22.4129 41.8895 23.8433C41.6999 25.1905 41.2293 27.9155 40.3167 28.5014C37.7828 27.9373 40.3546 19.4524 38.39 16.8299C37.6736 15.8736 36.9502 16.8348 36.7268 17.9627C36.4551 19.3344 36.6319 22.9999 36.6333 24.7085C36.6342 25.5811 36.835 27.2703 36.2152 27.7554C34.5658 27.2265 34.4627 20.4513 33.3118 17.5512C32.99 16.7406 31.9879 14.8805 31.1033 16.2477C29.7629 18.3191 31.8449 24.3057 32.3826 27.2448C32.844 29.7662 31.8828 29.11 31.1172 27.7267C29.8606 25.4565 28.2589 21.107 26.1187 19.6007C24.862 18.7163 23.6066 19.5608 23.9692 21.1368C24.4246 23.1158 28.1369 27.8216 29.6636 31.5964C29.7768 31.5511 29.8922 31.5073 30.0097 31.4646C31.0262 31.0954 34.9611 29.9314 35.8191 30.1519C36.51 30.3295 36.2981 30.8825 35.8413 31.2365C35.4037 31.5757 34.7949 31.8088 34.3076 32.0815C33.1508 32.7287 32.8351 33.5118 33.8298 34.472C35.0657 35.6653 37.8587 36.7317 38.5025 37.4246C38.9674 37.9251 38.6853 38.5011 38.0386 38.444C36.9372 38.3467 35.4339 37.0931 34.4952 36.5283C33.9232 36.184 33.4328 36.1477 34.133 36.9736C34.9493 37.9363 36.9733 39.6876 36.9186 40.7312C36.8826 41.42 36.1235 40.9513 35.8349 40.7226C34.8022 39.9045 33.337 37.444 32.6212 37.6005C32.4963 37.9099 32.9258 38.4862 33.1098 38.8057C33.4704 39.4315 34.3075 40.7369 34.4969 41.2972C34.6527 41.7579 34.5902 42.2637 34.1262 42.0655C32.8539 41.5219 32.0085 37.8668 30.9613 38.1983C30.7503 38.6068 31.152 39.7051 31.3664 40.2391C31.5941 40.8059 32.1605 41.9332 31.6079 42.2143C30.7315 42.1333 30.4565 40.1943 30.2315 39.5325C29.9098 38.5866 29.3136 37.6075 28.7616 36.6842C28.1099 36.9512 27.2687 37.0669 26.2671 37.0515C24.9484 37.0316 23.4278 36.7862 22.133 36.9612C20.7811 37.144 19.6962 38.0245 20.9016 39.2079C22.3984 40.6773 31.8232 42.9636 34.3384 43.4142C37.1013 43.9092 39.6172 43.9865 41.4914 42.4472C44.2465 40.1846 42.279 32.2533 43.3812 26.6363C43.6994 25.0148 45.419 20.7191 43.7202 19.5136L43.72 19.5136Z" fill="white"/>
<path fill-rule="evenodd" clip-rule="evenodd" d="M16.3787 0C19.1952 0 21.4784 2.29249 21.4784 5.12037C21.4784 7.94824 19.1952 10.2407 16.3787 10.2407C13.5622 10.2407 11.2789 7.94824 11.2789 5.12037C11.2789 2.29249 13.5622 0 16.3787 0Z" fill="white"/>
<path d="M36.6969 80.898C36.6678 81.1301 35.1505 81.2462 32.1453 81.2462C29.1484 81.1799 27.6625 81.0473 27.6875 80.8483L29.7638 64.3356H28.4263C27.8979 64.3356 27.5175 64.0124 27.2851 63.3658C27.0527 62.7192 26.9969 61.9152 27.1178 60.9535C27.5681 57.3725 28.85 55.5819 30.9636 55.5819C32.4497 55.5819 33.6307 56.0378 34.5068 56.9497C35.383 57.8615 35.748 58.8977 35.6021 60.0582C36.4665 58.6988 37.5359 57.6128 38.8105 56.8005C40.085 55.9881 41.3332 55.5819 42.5551 55.5819C44.4705 55.5819 45.5639 56.0794 45.835 57.0741C45.9008 57.3393 45.9013 57.7289 45.8367 58.2428C45.7721 58.7568 45.4996 59.6769 45.0191 61.0033C44.5385 62.3296 44.0956 63.2912 43.6903 63.888C43.2851 64.4849 43.0494 64.7833 42.9834 64.7833C42.9173 64.7833 42.6275 64.659 42.1139 64.4103C41.6001 64.1616 41.1287 64.0372 40.6994 64.0372C39.4445 64.0372 38.692 65.0319 38.4418 67.0214L36.697 80.898L36.6969 80.898Z" fill="white"/>
<path d="M50.8496 62.8933C50.1334 61.2354 49.841 59.8842 49.9722 58.8397C50.1036 57.7952 50.4687 57.1238 51.0677 56.8254C53.0543 55.9964 55.6905 55.5819 58.9765 55.5819C62.2624 55.5819 64.4853 56.3529 65.6456 57.8947C66.8057 59.4365 67.1961 61.7161 66.8166 64.7336L65.8286 72.592H67.5128C68.0742 72.592 68.47 72.9235 68.7004 73.5867C68.9308 74.2499 68.973 75.1617 68.8271 76.3222C68.6812 77.4827 68.2483 78.6267 67.5287 79.7541C66.809 80.8814 65.9538 81.4451 64.963 81.4451C63.1797 81.4451 61.8036 80.9643 60.8347 80.0027C60.3894 79.6049 60.0701 79.124 59.8768 78.5603C58.1158 80.4835 55.6336 81.4451 52.4303 81.4451C50.0195 81.4451 48.0969 80.583 46.6625 78.8588C45.2281 77.1346 44.6588 75.0954 44.9548 72.7412C45.6345 67.3365 49.1941 64.6341 55.6339 64.6341H58.3584L58.421 64.1367C58.5294 63.2746 58.4589 62.7192 58.2094 62.4705C57.96 62.2219 57.3234 62.0974 56.2996 62.0974C55.0447 62.0974 53.228 62.3627 50.8496 62.8932V62.8933ZM53.6618 72.0448C53.5701 72.7744 53.6985 73.3297 54.0468 73.7111C54.3951 74.0924 54.8748 74.2831 55.4858 74.2831C56.0967 74.2831 56.6811 74.0344 57.239 73.537L57.7206 69.7073H56.3335C54.7483 69.7073 53.8577 70.4865 53.6618 72.0449L53.6618 72.0448Z" fill="white"/>
<path d="M72.4309 56.328C72.4767 55.9632 74.0106 55.7809 77.0322 55.7809C80.054 55.7809 81.5935 55.9467 81.651 56.2783L83.7417 68.0162L88.6481 56.1788C88.8136 55.9136 89.854 55.781 91.7694 55.781C96.1616 55.781 98.2316 55.9965 97.9793 56.4276L82.1544 89.7015C82.0964 89.9005 81.1839 90 79.4172 90C77.6503 90 76.0147 89.9419 74.5101 89.8259C73.0056 89.7098 72.2968 89.5689 72.3837 89.4031L78.0067 78.9584L72.4309 56.3281V56.328Z" fill="white"/>
</svg>
