<svg width="36" height="36" viewBox="0 0 36 36" fill="none" xmlns="http://www.w3.org/2000/svg">
<path d="M16.0664 3.48047C11.2149 4.12031 7.05237 7.0875 4.89378 11.4398C3.91644 13.4086 3.46644 15.2156 3.39612 17.4727C3.34691 18.9422 3.47347 20.1305 3.80394 21.4453C5.69534 28.9687 13.1977 33.7008 20.7914 32.168C26.7961 30.9516 31.3664 26.1281 32.3086 20.0039C32.4703 18.9562 32.4774 16.9031 32.3157 15.8555C31.4157 9.97734 27.2039 5.27344 21.5508 3.83203C19.8282 3.38906 17.7539 3.2625 16.0664 3.48047ZM14.7867 9.80156C15.2719 9.99843 15.5391 10.5328 15.4336 11.0883C15.3985 11.2992 15.2367 11.5102 14.6391 12.1078L13.9008 12.8672L19.4625 12.8812C24.9539 12.9023 25.0243 12.9023 25.2141 13.05C25.5868 13.3242 25.6993 13.5492 25.6993 13.9922C25.6993 14.4352 25.5868 14.6602 25.2141 14.9344C25.0243 15.082 24.9539 15.082 19.4625 15.1031L13.9008 15.1172L14.6391 15.8766C15.4407 16.6852 15.5391 16.875 15.4336 17.4164C15.3703 17.768 14.9485 18.1828 14.5969 18.2461C14.0133 18.3586 13.8868 18.2672 11.9742 16.3617C9.45706 13.8445 9.46409 14.1469 11.9039 11.6789C13.8938 9.675 14.1328 9.52031 14.7867 9.80156ZM22.1203 17.782C22.5844 18.1195 25.5797 21.1852 25.6571 21.3961C25.7696 21.6984 25.7485 22.057 25.6008 22.3453C25.425 22.6758 22.1766 25.9102 21.9164 26.0086C21.0235 26.3461 20.1446 25.5937 20.3836 24.7008C20.4399 24.5039 20.6438 24.2437 21.1641 23.7305C21.5508 23.3437 21.8672 23.0062 21.8672 22.9781C21.8672 22.943 19.3993 22.9219 16.3828 22.9219C10.3008 22.9219 10.6664 22.95 10.2867 22.4578C10.1321 22.2539 10.0969 22.1273 10.0969 21.825C10.0969 21.4031 10.2305 21.1641 10.6172 20.8969L10.8492 20.7422H16.3547C19.3852 20.7422 21.8672 20.7211 21.8672 20.6859C21.8672 20.6578 21.5789 20.3484 21.2274 20.0039C20.2641 19.0547 20.1094 18.5344 20.6227 17.9508C20.8899 17.6484 21.0305 17.5852 21.4875 17.5852C21.7758 17.5781 21.9024 17.6203 22.1203 17.782Z" fill="#39BB8F"/>
</svg>
