<svg width="36" height="36" viewBox="0 0 36 36" fill="none" xmlns="http://www.w3.org/2000/svg">
<path d="M6.05392 3.45234C5.14689 3.62812 4.17657 4.38047 3.76173 5.23125C3.62814 5.50547 3.48048 5.89922 3.44532 6.11016C3.35392 6.61641 3.35392 13.6406 3.44532 14.1398C3.56486 14.7656 3.88829 15.3633 4.38048 15.8484C5.12579 16.5938 5.87111 16.875 7.15782 16.875H7.87501V14.0766V11.2781L7.56564 11.1937C6.57423 10.9336 6.48282 9.49219 7.43204 9.09844C7.76954 8.95078 28.2305 8.95078 28.568 9.09844C29.5172 9.49219 29.4258 10.9336 28.4344 11.1937L28.125 11.2781V14.0766V16.875H28.8211C29.7211 16.875 30.157 16.7906 30.7688 16.4883C31.6477 16.0594 32.3719 15.1102 32.5547 14.1398C32.6461 13.6336 32.6461 6.61641 32.5547 6.11016C32.3719 5.13984 31.6477 4.19062 30.7688 3.76172C30.4945 3.62812 30.1008 3.48047 29.8899 3.44531C29.4188 3.36094 6.50392 3.36094 6.05392 3.45234Z" fill="#39BB8F"/>
<path d="M10.125 20.3836C10.125 26.2969 10.1531 29.6438 10.1953 29.8898C10.3711 30.8109 11.1164 31.8164 11.9391 32.2313C12.7055 32.618 12.7758 32.625 17.9719 32.625C20.8687 32.625 22.9148 32.5969 23.1398 32.5547C24.4195 32.3156 25.5586 31.1766 25.8047 29.8898C25.8469 29.6438 25.875 26.2969 25.875 20.3836V11.25H18H10.125V20.3836ZM18.6187 15.9398C18.7172 16.0102 18.8648 16.1648 18.9422 16.2703C19.0828 16.4531 19.0898 16.5586 19.1109 19.2445L19.132 22.0289L19.9969 21.1781C20.7773 20.4117 20.8898 20.3273 21.1781 20.2852C21.7969 20.1938 22.3523 20.5945 22.4719 21.2203C22.5703 21.7195 22.4016 21.9305 20.4117 23.9203C18.3797 25.9453 18.3586 25.9523 17.7328 25.8398C17.5078 25.8047 17.2055 25.5305 15.525 23.85C13.4227 21.7477 13.4156 21.7336 13.5352 21.1148C13.5984 20.7703 14.0203 20.3484 14.3648 20.2852C14.9203 20.1797 15.0891 20.2711 16.0172 21.1852L16.875 22.0359V19.357C16.875 17.6273 16.9031 16.6008 16.9523 16.4742C17.0508 16.2141 17.2828 15.968 17.543 15.8484C17.8242 15.7148 18.3797 15.7641 18.6187 15.9398Z" fill="#39BB8F"/>
</svg>
