<svg width="18" height="21" viewBox="0 0 18 21" fill="none" xmlns="http://www.w3.org/2000/svg">
<path fill-rule="evenodd" clip-rule="evenodd" d="M9.00051 19.4575C7.71285 19.4575 6.66169 18.4771 6.52322 17.2248H11.4788C11.3403 18.4771 10.2882 19.4575 9.00051 19.4575ZM18 17.2248L17.4542 16.4324C16.4253 14.9395 15.8815 13.193 15.8815 11.3818V8.55882C15.8815 5.02027 13.197 2.09928 9.75855 1.72025V0H8.24247V1.72025C4.80398 2.09928 2.11848 5.02027 2.11848 8.55882V11.3818C2.11848 13.195 1.57471 14.9416 0.545792 16.4324L0 17.2248H5.00713C5.15066 19.3129 6.87698 20.9736 9.00051 20.9736C11.124 20.9736 12.8514 19.3129 12.9949 17.2248H18Z" fill="white"/>
</svg>
