<svg width="36" height="36" viewBox="0 0 36 36" fill="none" xmlns="http://www.w3.org/2000/svg">
<path d="M12.9398 3.07759C12.113 3.27697 11.2861 3.92203 10.8873 4.67851C10.4769 5.4643 10.5003 4.52017 10.5003 17.996C10.5003 31.466 10.4769 30.5277 10.8873 31.3076C11.3154 32.1286 12.2302 32.7971 13.1216 32.9437C13.4031 32.9907 15.0685 33.0083 18.9154 32.9965L24.3104 32.9789L24.6916 32.8441C25.7413 32.4746 26.5798 31.5363 26.7968 30.4984C26.8906 30.0586 26.8906 5.93344 26.7968 5.49363C26.5798 4.45567 25.7764 3.54672 24.7326 3.16555L24.3104 3.01309L18.7981 3.00136C14.1889 2.99549 13.2271 3.00722 12.9398 3.07759ZM21.2083 5.9393C21.4311 6.16214 21.4721 6.44362 21.3197 6.73096C21.1379 7.08281 21.0558 7.09454 18.5987 7.07695L16.3703 7.05935L16.1944 6.88929C15.8777 6.59022 15.9012 6.12109 16.2355 5.8572C16.3762 5.74578 16.4817 5.73992 18.6925 5.73992H21.0089L21.2083 5.9393ZM19.3904 27.7657C19.5663 27.8713 19.7422 28.0472 19.8536 28.2231C20.0061 28.4694 20.0296 28.5691 20.0296 28.8975C20.0237 29.7067 19.4783 30.2521 18.6691 30.2521C18.0475 30.2521 17.5666 29.8827 17.3848 29.2669C17.0447 28.1 18.3524 27.1206 19.3904 27.7657Z" fill="#39BB8F"/>
</svg>
