<svg width="113" height="104" viewBox="0 0 113 104" fill="none" xmlns="http://www.w3.org/2000/svg">
<path fill-rule="evenodd" clip-rule="evenodd" d="M5.9286 72.893C2.60702 78.2678 -4.65396 89.3072 4.32681 94.5404C18.226 102.64 24.8754 85.22 22.5871 72.8879C21.6362 64.0221 16.5603 44.1193 28.5194 56.5063C64.4412 73.2044 70.9351 6.91651 36.3626 11.7056C29.1273 12.7076 23.7975 21.5262 16.901 21.5449C11.9504 21.5583 10.7891 15.5159 9.08674 11.6897C8.32583 9.97954 6.38108 7.03023 4.2113 9.36249C2.59721 11.0974 3.34966 14.2157 3.93067 16.7123C7.54263 32.2324 12.7937 61.7846 5.9286 72.8931V72.893ZM50.4119 22.549C48.7261 22.4561 48.5331 25.8994 48.3012 27.5523C48.0826 29.1091 47.5399 32.2579 46.4876 32.935C43.5659 32.2832 46.5313 22.4783 44.266 19.4479C43.44 18.3428 42.6059 19.4535 42.3482 20.7569C42.035 22.342 42.2388 26.5777 42.2405 28.5521C42.2414 29.5604 42.473 31.5124 41.7583 32.073C39.8565 31.4617 39.7376 23.6327 38.4106 20.2815C38.0395 19.3447 36.884 17.1952 35.864 18.7751C34.3185 21.1687 36.7192 28.0866 37.3391 31.4829C37.8712 34.3966 36.7628 33.6383 35.8801 32.0397C34.4311 29.4164 32.5842 24.3903 30.1165 22.6497C28.6675 21.6277 27.2199 22.6036 27.638 24.4247C28.163 26.7117 32.4435 32.1494 34.204 36.5115C34.3344 36.459 34.4675 36.4084 34.6031 36.3591C35.7751 35.9325 40.3123 34.5874 41.3016 34.8422C42.0983 35.0474 41.854 35.6864 41.3272 36.0956C40.8227 36.4875 40.1207 36.7569 39.5587 37.0719C38.2249 37.8198 37.8608 38.7247 39.0078 39.8344C40.4329 41.2133 43.6535 42.4455 44.3958 43.2462C44.9318 43.8245 44.6066 44.4902 43.8609 44.4241C42.5908 44.3117 40.8574 42.8632 39.775 42.2105C39.1155 41.8127 38.55 41.7707 39.3574 42.7251C40.2986 43.8375 42.6325 45.8612 42.5694 47.0672C42.5279 47.8631 41.6526 47.3216 41.3198 47.0572C40.1291 46.1119 38.4396 43.2686 37.6143 43.4494C37.4702 43.807 37.9655 44.4729 38.1777 44.8421C38.5935 45.5653 39.5586 47.0738 39.7771 47.7212C39.9567 48.2536 39.8846 48.838 39.3496 48.609C37.8826 47.9809 36.9078 43.7572 35.7003 44.1403C35.457 44.6123 35.9202 45.8815 36.1674 46.4985C36.4299 47.1535 37.0831 48.4562 36.4459 48.781C35.4353 48.6874 35.1182 46.4468 34.8588 45.682C34.4878 44.589 33.8004 43.4576 33.1639 42.3906C32.4124 42.6992 31.4424 42.8329 30.2875 42.8151C28.7671 42.7921 27.0137 42.5085 25.5207 42.7108C23.9619 42.9219 22.7109 43.9394 24.1009 45.3069C25.8268 47.0049 36.6941 49.6468 39.5943 50.1676C42.7801 50.7395 45.6811 50.8289 47.8421 49.0501C51.0189 46.4356 48.7502 37.2705 50.0212 30.7797C50.3881 28.906 52.3709 23.9421 50.4121 22.5491L50.4119 22.549Z" fill="white"/>
<path fill-rule="evenodd" clip-rule="evenodd" d="M18.8857 0C22.1333 0 24.766 2.6491 24.766 5.91687C24.766 9.18464 22.1333 11.8337 18.8857 11.8337C15.6381 11.8337 13.0054 9.18464 13.0054 5.91687C13.0054 2.6491 15.6381 0 18.8857 0Z" fill="white"/>
<path d="M42.3138 93.4822C42.2802 93.7504 40.5307 93.8845 37.0655 93.8845C33.61 93.8079 31.8966 93.6546 31.9255 93.4247L34.3195 74.3434H32.7774C32.1681 74.3434 31.7294 73.9699 31.4614 73.2227C31.1934 72.4755 31.1292 71.5464 31.2686 70.4352C31.7877 66.2971 33.2659 64.228 35.703 64.228C37.4165 64.228 38.7784 64.7549 39.7885 65.8085C40.7988 66.8622 41.2197 68.0596 41.0515 69.4007C42.0482 67.8297 43.2813 66.5749 44.7509 65.6361C46.2205 64.6974 47.6598 64.228 49.0687 64.228C51.2773 64.228 52.538 64.8028 52.8507 65.9523C52.9265 66.2588 52.9271 66.709 52.8526 67.3029C52.7781 67.8968 52.4639 68.96 51.9098 70.4927C51.3557 72.0253 50.845 73.1365 50.3777 73.8262C49.9104 74.5159 49.6386 74.8607 49.5625 74.8607C49.4864 74.8607 49.1521 74.7171 48.5599 74.4296C47.9676 74.1423 47.424 73.9986 46.929 73.9986C45.482 73.9986 44.6143 75.148 44.3258 77.447L42.3139 93.4821L42.3138 93.4822Z" fill="white"/>
<path d="M58.6326 72.6767C57.8068 70.7609 57.4696 69.1995 57.621 67.9926C57.7724 66.7856 58.1934 66.0097 58.8841 65.6649C61.1748 64.7069 64.2145 64.228 68.0034 64.228C71.7923 64.228 74.3555 65.1189 75.6933 66.9006C77.031 68.6822 77.4812 71.3164 77.0436 74.8032L75.9043 83.8841H77.8463C78.4936 83.8841 78.95 84.2672 79.2157 85.0335C79.4813 85.7999 79.53 86.8535 79.3617 88.1946C79.1935 89.5356 78.6944 90.8576 77.8646 92.1603C77.0348 93.463 76.0487 94.1144 74.9063 94.1144C72.85 94.1144 71.2633 93.5588 70.1461 92.4476C69.6326 91.9879 69.2644 91.4322 69.0415 90.7809C67.011 93.0032 64.1489 94.1144 60.4552 94.1144C57.6755 94.1144 55.4586 93.1181 53.8047 91.1257C52.1507 89.1334 51.4943 86.7769 51.8356 84.0565C52.6193 77.8111 56.7237 74.6883 64.1492 74.6883H67.2908L67.3629 74.1136C67.4879 73.1173 67.4066 72.4756 67.1189 72.1881C66.8313 71.9008 66.0973 71.757 64.9169 71.757C63.4699 71.757 61.3751 72.0635 58.6326 72.6766V72.6767ZM61.8753 83.2518C61.7695 84.0948 61.9175 84.7366 62.3192 85.1773C62.7208 85.6179 63.2739 85.8382 63.9784 85.8382C64.6828 85.8382 65.3567 85.5509 66 84.9762L66.5553 80.5506H64.9559C63.128 80.5506 62.1011 81.4511 61.8752 83.2519L61.8753 83.2518Z" fill="white"/>
<path d="M83.5172 65.0901C83.5701 64.6686 85.3387 64.4579 88.8228 64.4579C92.3071 64.4579 94.0823 64.6495 94.1485 65.0327L96.5593 78.5965L102.217 64.9178C102.407 64.6113 103.607 64.458 105.816 64.458C110.88 64.458 113.267 64.707 112.976 65.2052L94.7291 103.655C94.6621 103.885 93.61 104 91.5728 104C89.5355 104 87.6495 103.933 85.9147 103.799C84.1799 103.665 83.3626 103.502 83.4627 103.31L89.9464 91.2408L83.5172 65.0903V65.0901Z" fill="white"/>
</svg>
