<svg width="36" height="36" viewBox="0 0 36 36" fill="none" xmlns="http://www.w3.org/2000/svg">
<path d="M18.5625 3.63516C18.2109 3.70547 6.84844 8.02969 6.45469 8.24063C5.68828 8.64844 4.97109 9.50625 4.63359 10.4273C4.47187 10.8633 4.46484 10.8703 4.45078 15.1875C4.42969 18.5695 4.45078 19.5469 4.51406 19.6875C4.56328 19.7859 4.73203 19.9266 4.87969 19.9969C5.11875 20.1164 5.19609 20.1234 5.44219 20.0461C7.69219 19.3922 9.83672 19.5891 11.6719 20.6156C13.1273 21.4383 14.4141 22.8727 15.0188 24.3633C15.4266 25.3547 15.5531 25.9453 15.5883 27.0422C15.6305 28.1813 15.5391 28.7719 15.1453 29.918C14.85 30.7969 14.843 31.0078 15.1102 31.3031L15.3141 31.5352H20.9672C26.2195 31.5352 26.6414 31.5281 27.0633 31.4086C29.2148 30.7969 30.7055 29.1234 31.0008 26.9648C31.1484 25.9102 31.0711 25.4953 30.6281 25.0594C30.2555 24.6797 29.9812 24.6094 28.8984 24.6094C27.5836 24.6094 26.8734 24.3773 26.2266 23.7375C25.5867 23.1117 25.3547 22.5211 25.3969 21.6C25.425 20.8406 25.6359 20.3484 26.1633 19.793C26.8523 19.0688 27.5414 18.8508 29.1656 18.8438C29.8898 18.8438 30.0727 18.8227 30.3047 18.7031C30.9094 18.3938 31.1203 17.8313 31.057 16.7063C30.9656 15.2297 30.5016 14.182 29.4961 13.1836C28.7789 12.4664 28.3219 12.1711 27.443 11.8547L26.8242 11.6367L24.2789 11.6156L21.7336 11.5945L21.7125 8.59219L21.6914 5.58984L21.4594 5.11875C21.1711 4.52813 20.6156 4.00781 20.0531 3.79688C19.6523 3.64922 18.9 3.56484 18.5625 3.63516ZM19.4414 5.87109L19.6172 6.03984V8.82422V11.6016H14.3648C8.78203 11.6016 8.69766 11.6086 7.79766 11.9461C7.58672 12.0305 7.22812 12.2063 7.00312 12.3398C6.77813 12.4734 6.57422 12.5859 6.56016 12.5859C6.53906 12.5859 6.53906 12.2625 6.55312 11.8617C6.58828 11.018 6.70781 10.7156 7.2 10.2938C7.46016 10.0617 7.91016 9.87188 10.1672 9.0211C11.6367 8.46563 14.2102 7.49531 15.8906 6.8625C17.5711 6.22266 19.0195 5.70234 19.1109 5.70234C19.2023 5.69531 19.35 5.77266 19.4414 5.87109ZM21.0797 16.6641C21.2062 16.7414 21.368 16.9031 21.4453 17.0297C21.7266 17.4938 21.5578 18.1266 21.0797 18.4219C20.8547 18.5555 20.7141 18.5625 16.9875 18.5625H13.1273L12.825 18.2531C12.5297 17.9648 12.5156 17.9297 12.5156 17.543C12.5156 17.1562 12.5297 17.1211 12.825 16.8328L13.1273 16.5234H16.9875C20.7141 16.5234 20.8547 16.5305 21.0797 16.6641Z" fill="#39BB8F"/>
<path d="M27.9 20.3906C27.2953 20.5734 26.9157 21.0375 26.8735 21.6422C26.8453 22.1555 27.0493 22.5844 27.4782 22.8867L27.7875 23.0977L29.1235 23.1188C30.0727 23.1328 30.5297 23.1188 30.6774 23.0555C30.9867 22.9219 31.0782 22.6266 31.0782 21.7266C31.0782 20.3977 30.9727 20.3203 29.236 20.3273C28.6032 20.3273 28.0055 20.3555 27.9 20.3906Z" fill="#39BB8F"/>
<path d="M7.13674 21.8039C5.51252 22.057 4.12737 22.943 3.22737 24.3141C2.25002 25.8047 2.06721 27.7102 2.73518 29.4328C3.33987 30.9937 4.85158 32.3297 6.51799 32.7797C7.2844 32.9836 8.53596 32.9836 9.31643 32.7727C11.3203 32.2453 12.8813 30.6562 13.3594 28.6734C13.5492 27.8719 13.5492 26.7258 13.3594 25.9734C12.8531 24.0117 11.2781 22.4297 9.33049 21.9375C8.66955 21.7758 7.70627 21.7125 7.13674 21.8039ZM8.43752 24.3422C8.88049 24.6516 8.96487 24.8273 8.98596 25.6008L9.01408 26.2969H9.59065C10.5469 26.2969 11.0602 26.6766 11.0602 27.4008C11.0602 27.7523 10.9125 27.9984 10.5469 28.2445C10.35 28.3852 10.2235 28.4062 9.66096 28.4062H9.00002V28.9828C9.00002 29.6859 8.8383 30.0937 8.49377 30.3047C8.00862 30.6 7.33362 30.4242 7.03127 29.9391C6.91877 29.7492 6.89065 29.5805 6.89065 29.0531V28.4062H6.19455C5.5969 28.4062 5.47737 28.3852 5.27346 28.2445C4.64768 27.8227 4.63362 27 5.2383 26.5359C5.47737 26.3531 5.56174 26.332 6.19455 26.3109L6.89065 26.2828V25.6008C6.89065 25.0523 6.91877 24.8836 7.03127 24.6937C7.33362 24.2016 7.98752 24.0398 8.43752 24.3422Z" fill="#39BB8F"/>
</svg>
