<svg width="34" height="30" viewBox="0 0 34 30" fill="none" xmlns="http://www.w3.org/2000/svg">
<g clip-path="url(#clip0_74_592)">
<path fill-rule="evenodd" clip-rule="evenodd" d="M6.74761 3.0616C6.74761 1.37243 8.06511 0.00326538 9.69027 0.00326538H24.3276C25.9531 0.00326538 27.2703 1.37243 27.2703 3.0616V18.2733C27.2703 19.9622 25.9531 21.3313 24.3276 21.3313H9.69027C8.06511 21.3313 6.74761 19.9622 6.74761 18.2733V3.0616ZM10.3278 19.2416C9.46119 19.2416 8.75848 18.5113 8.75848 17.6105V3.7291C8.75848 2.82827 9.46119 2.09827 10.3278 2.09827H12.1181C14.477 2.09827 16.2238 4.58215 14.7152 6.15243L10.3379 10.7074L14.0945 14.7972C15.9158 16.7799 13.7831 19.2416 11.7621 19.2416H10.3278ZM16.0083 2.09827H17.5212C19.8801 2.09827 21.6272 4.58215 20.1183 6.15243L15.741 10.7074L23.7877 19.2383L15.296 19.2366C17.1208 19.2366 18.2726 16.0466 16.3197 13.9338L13.3378 10.7074L16.8094 6.98854C18.6786 4.98577 17.3218 2.40938 16.0083 2.09827ZM25.2576 17.6105L18.7412 10.7074L22.2125 6.98854C24.082 4.98577 22.7249 2.40938 21.4117 2.09827H23.6851C24.5519 2.09827 25.2546 2.82827 25.2546 3.7291L25.2576 17.6105ZM1.32819 27.778V29.0208H1.86252C2.13943 29.0208 2.3498 28.9669 2.4928 28.8588C2.63607 28.751 2.7077 28.5941 2.7077 28.3883C2.7077 28.1847 2.64222 28.0322 2.51071 27.9305C2.37947 27.8288 2.1838 27.778 1.92346 27.778H1.32819ZM1.32819 25.6577V26.8399H1.74063C2.02744 26.8399 2.24208 26.7894 2.38428 26.6888C2.52648 26.5883 2.59758 26.4347 2.59758 26.2283C2.59758 26.0419 2.53075 25.9002 2.39684 25.8033C2.26292 25.7063 2.06566 25.6577 1.80531 25.6577H1.32819ZM0 24.7047H2.08491C2.70102 24.7047 3.16425 24.8194 3.47484 25.0494C3.78544 25.2791 3.94074 25.621 3.94074 26.0758C3.94074 26.3813 3.85921 26.6352 3.6967 26.8377C3.53445 27.0399 3.29789 27.1858 2.9873 27.2755C3.33585 27.3424 3.60395 27.4844 3.79132 27.7019C3.97896 27.9188 4.07252 28.1963 4.07252 28.5338C4.07252 29.0302 3.90198 29.3983 3.56038 29.6377C3.21877 29.8772 2.69247 29.9972 1.98093 29.9972H0L0 24.7047ZM6.98069 25.8849L6.32127 27.8694H7.61846L6.98069 25.8849ZM6.18869 24.7047H7.82641L9.75415 29.9972H8.303L7.94108 28.876H5.98074L5.60118 29.9972H4.25802L6.18869 24.7047ZM10.0479 24.7047H11.7423L13.2172 27.8777C13.2675 27.9847 13.326 28.133 13.3928 28.323C13.4597 28.5127 13.5337 28.7455 13.6147 29.0213C13.5719 28.7605 13.5401 28.521 13.5198 28.3024C13.4998 28.0841 13.4893 27.8841 13.4893 27.703V24.7047H14.7149V29.9972H13.0275L11.4953 26.7083C11.4237 26.5569 11.3579 26.3924 11.2983 26.2149C11.2387 26.0372 11.1836 25.8444 11.1337 25.6355C11.1812 25.951 11.2165 26.241 11.2392 26.5055C11.262 26.7697 11.2735 27.0024 11.2735 27.2038V29.9972H10.0479V24.7047ZM15.679 24.7047H17.0364V26.9913L18.6134 24.7047H20.133L18.2622 27.1366L20.3238 29.9972H18.6372L17.0364 27.5427V29.9972H15.679V24.7047ZM24.2745 27.778V29.0208H24.8088C25.086 29.0208 25.2961 28.9669 25.4393 28.8588C25.5823 28.751 25.654 28.5941 25.654 28.3883C25.654 28.1847 25.5885 28.0322 25.457 27.9305C25.3257 27.8288 25.1301 27.778 24.8697 27.778H24.2745ZM24.2745 25.6577V26.8399H24.6869C24.9737 26.8399 25.1883 26.7894 25.3305 26.6888C25.4727 26.5883 25.5441 26.4347 25.5441 26.2283C25.5441 26.0419 25.477 25.9002 25.3431 25.8033C25.2094 25.7063 25.0122 25.6577 24.7516 25.6577H24.2745ZM22.9463 24.7047H25.0312C25.6473 24.7047 26.1108 24.8194 26.4211 25.0494C26.7317 25.2791 26.8867 25.621 26.8867 26.0758C26.8867 26.3813 26.8055 26.6352 26.6432 26.8377C26.4807 27.0399 26.2442 27.1858 25.9336 27.2755C26.2824 27.3424 26.5502 27.4844 26.7378 27.7019C26.9252 27.9188 27.019 28.1963 27.019 28.5338C27.019 29.0302 26.8482 29.3983 26.5066 29.6377C26.1653 29.8772 25.6387 29.9972 24.9272 29.9972H22.9463V24.7047ZM29.1489 25.6349V26.9924H29.6254C29.9189 26.9924 30.1392 26.9372 30.2862 26.8263C30.4329 26.7158 30.5064 26.5499 30.5064 26.3285C30.5064 26.0899 30.4247 25.9147 30.2611 25.8027C30.0975 25.6908 29.839 25.6349 29.4856 25.6349H29.1489ZM27.8207 24.7047H29.8438C30.5179 24.7047 31.0186 24.8183 31.345 25.0455C31.6713 25.2727 31.8346 25.6185 31.8346 26.083C31.8346 26.4258 31.7486 26.7077 31.5762 26.9288C31.404 27.1497 31.1549 27.2974 30.8296 27.3719C31.0974 27.4738 31.3129 27.763 31.4757 28.2394L32.084 29.9972H30.6679L30.2199 28.5485C30.1483 28.3152 30.0504 28.1538 29.9261 28.0644C29.8021 27.9749 29.6086 27.9305 29.3458 27.9305H29.1489V29.9972H27.8207V24.7047ZM32.6424 24.7047H34V29.9972H32.6424V24.7047Z" fill="white"/>
</g>
<defs>
<clipPath id="clip0_74_592">
<rect width="34" height="30" fill="white"/>
</clipPath>
</defs>
</svg>
