<svg width="300" height="20" viewBox="0 0 300 20" fill="none" xmlns="http://www.w3.org/2000/svg">
<path d="M17.1429 20C17.9006 20 18.6273 19.7313 19.1632 19.253C19.699 18.7746 20 18.1259 20 17.4495L20 8.42053C20.0002 8.05254 19.9111 7.68887 19.739 7.35449C19.5669 7.02012 19.3158 6.72295 19.0029 6.48339L10.9286 0.307241C10.6696 0.108984 10.3397 -4.22264e-07 9.99857 -4.37176e-07C9.65742 -4.52089e-07 9.32753 0.108984 9.06857 0.307241L0.997143 6.48339C0.684232 6.72295 0.433096 7.02012 0.260975 7.35449C0.0888554 7.68887 -0.000173921 8.05254 -3.68073e-07 8.42053L-7.6274e-07 17.4495C-7.92308e-07 18.1259 0.301021 18.7746 0.836839 19.253C1.37266 19.7313 2.09938 20 2.85714 20L17.1429 20Z" fill="#E2E2E2"/>
<path d="M84.2857 19.4272L84.2857 7.71562C84.2858 7.64039 84.271 7.56588 84.2422 7.49637C84.2135 7.42685 84.1713 7.36368 84.1181 7.31049C84.0649 7.25729 84.0017 7.2151 83.9322 7.18634C83.8627 7.15757 83.7882 7.1428 83.7129 7.14286L82.0013 7.14286C81.9261 7.1428 81.8516 7.15757 81.7821 7.18634C81.7126 7.2151 81.6494 7.25729 81.5962 7.31049C81.543 7.36368 81.5008 7.42685 81.4721 7.49637C81.4433 7.56588 81.4285 7.64039 81.4286 7.71562L81.4286 19.4272C81.4285 19.5025 81.4433 19.577 81.4721 19.6465C81.5008 19.716 81.543 19.7792 81.5962 19.8324C81.6494 19.8856 81.7126 19.9278 81.7821 19.9565C81.8516 19.9853 81.9261 20.0001 82.0013 20L83.7129 20C83.7882 20.0001 83.8627 19.9853 83.9322 19.9565C84.0017 19.9278 84.0649 19.8856 84.1181 19.8324C84.1713 19.7792 84.2135 19.716 84.2422 19.6465C84.271 19.577 84.2858 19.5025 84.2857 19.4272ZM72.8571 19.4272L72.8571 7.71562C72.8572 7.64039 72.8424 7.56588 72.8137 7.49637C72.7849 7.42685 72.7427 7.36368 72.6895 7.31049C72.6363 7.25729 72.5732 7.2151 72.5036 7.18634C72.4341 7.15757 72.3596 7.1428 72.2844 7.14286L70.5728 7.14286C70.4975 7.1428 70.423 7.15757 70.3535 7.18634C70.284 7.2151 70.2208 7.25729 70.1676 7.31049C70.1144 7.36368 70.0722 7.42685 70.0435 7.49637C70.0147 7.56588 69.9999 7.64039 70 7.71562L70 19.4272C69.9999 19.5025 70.0147 19.577 70.0435 19.6465C70.0722 19.716 70.1144 19.7792 70.1676 19.8324C70.2208 19.8856 70.284 19.9278 70.3535 19.9565C70.423 19.9853 70.4975 20.0001 70.5728 20L72.2844 20C72.3596 20.0001 72.4341 19.9853 72.5036 19.9565C72.5732 19.9278 72.6363 19.8856 72.6895 19.8324C72.7427 19.7792 72.7849 19.716 72.8137 19.6465C72.8424 19.577 72.8572 19.5025 72.8571 19.4272ZM75.7143 0.714287L75.7143 19.2857C75.7143 19.4752 75.7895 19.6568 75.9235 19.7908C76.0574 19.9247 76.2391 20 76.4286 20L77.8571 20C78.0466 20 78.2283 19.9247 78.3622 19.7908C78.4962 19.6568 78.5714 19.4752 78.5714 19.2857L78.5714 0.714287C78.5714 0.524845 78.4962 0.343163 78.3622 0.20921C78.2283 0.0752545 78.0466 9.59545e-08 77.8571 9.36955e-08L76.4286 7.66599e-08C76.2391 7.44009e-08 76.0575 0.0752545 75.9235 0.20921C75.7895 0.343163 75.7143 0.524845 75.7143 0.714287ZM87.1429 0.714287L87.1429 19.2857C87.1429 19.4752 87.2181 19.6568 87.3521 19.7908C87.486 19.9247 87.6677 20 87.8571 20L89.2857 20C89.4752 20 89.6568 19.9247 89.7908 19.7908C89.9247 19.6568 90 19.4752 90 19.2857L90 0.714287C90 0.524845 89.9247 0.343163 89.7908 0.20921C89.6568 0.0752547 89.4752 2.32239e-07 89.2857 2.2998e-07L87.8571 2.12944e-07C87.6677 2.10685e-07 87.486 0.0752546 87.3521 0.20921C87.2181 0.343163 87.1429 0.524845 87.1429 0.714287Z" fill="#E2E2E2"/>
<path fill-rule="evenodd" clip-rule="evenodd" d="M140 10L143.54 6.46L145.3 8.23L143.54 10L145.3 11.77L143.54 13.54L140 10ZM148.23 14.7L150 16.46L151.77 14.7L153.54 16.46L150 20L146.46 16.46L148.23 14.7ZM154.7 8.23L156.46 6.46L160 10L156.46 13.54L154.7 11.77L156.46 10L154.7 8.23ZM148.23 5.3L146.46 3.54L150 0L153.54 3.54L151.77 5.3L150 3.54L148.23 5.3ZM153 10C153 11.6569 151.657 13 150 13C148.343 13 147 11.6569 147 10C147 8.34315 148.343 7 150 7C151.657 7 153 8.34315 153 10Z" fill="#E2E2E2"/>
<path d="M229.527 11.3804L224.004 9.39546L221.696 6.49703C221.495 6.25162 221.242 6.05398 220.955 5.91845C220.669 5.78292 220.356 5.71292 220.039 5.7135H214.327C213.978 5.71339 213.634 5.79872 213.325 5.96205C213.016 6.12539 212.752 6.36178 212.556 6.6506L210.619 9.49545C210.215 10.0875 210 10.7875 210 11.5039V17.1415C210 17.3309 210.075 17.5126 210.209 17.6465C210.343 17.7805 210.525 17.8557 210.714 17.8557H212.244C212.4 18.4687 212.755 19.0124 213.254 19.4008C213.753 19.7891 214.368 20 215 20C215.632 20 216.247 19.7891 216.746 19.4008C217.245 19.0124 217.6 18.4687 217.756 17.8557H222.244C222.4 18.4687 222.755 19.0124 223.254 19.4008C223.753 19.7891 224.368 20 225 20C225.632 20 226.247 19.7891 226.746 19.4008C227.245 19.0124 227.6 18.4687 227.756 17.8557H229.286C229.475 17.8557 229.657 17.7805 229.791 17.6465C229.925 17.5126 230 17.3309 230 17.1415V12.0525C230 11.9054 229.955 11.7619 229.87 11.6416C229.785 11.5213 229.666 11.4301 229.527 11.3804ZM215 18.57C214.717 18.57 214.441 18.4862 214.206 18.3292C213.971 18.1723 213.788 17.9492 213.68 17.6881C213.572 17.4271 213.544 17.1399 213.599 16.8628C213.654 16.5857 213.79 16.3312 213.99 16.1314C214.19 15.9316 214.444 15.7956 214.721 15.7404C214.998 15.6853 215.286 15.7136 215.547 15.8217C215.808 15.9298 216.031 16.1129 216.188 16.3479C216.345 16.5828 216.429 16.859 216.429 17.1415C216.428 17.5202 216.277 17.8832 216.01 18.151C215.742 18.4187 215.379 18.5694 215 18.57ZM225 18.57C224.717 18.57 224.441 18.4862 224.206 18.3292C223.971 18.1723 223.788 17.9492 223.68 17.6881C223.572 17.4271 223.544 17.1399 223.599 16.8628C223.654 16.5857 223.79 16.3312 223.99 16.1314C224.19 15.9316 224.444 15.7956 224.721 15.7404C224.998 15.6853 225.286 15.7136 225.547 15.8217C225.808 15.9298 226.031 16.1129 226.188 16.3479C226.345 16.5828 226.429 16.859 226.429 17.1415C226.428 17.5202 226.278 17.8834 226.01 18.1512C225.742 18.419 225.379 18.5696 225 18.57ZM228.571 16.4272H227.756C227.6 15.8142 227.245 15.2706 226.746 14.8822C226.247 14.4938 225.632 14.283 225 14.283C224.368 14.283 223.753 14.4938 223.254 14.8822C222.755 15.2706 222.4 15.8142 222.244 16.4272H217.756C217.6 15.8142 217.245 15.2706 216.746 14.8822C216.247 14.4938 215.632 14.283 215 14.283C214.368 14.283 213.753 14.4938 213.254 14.8822C212.755 15.2706 212.4 15.8142 212.244 16.4272H211.429V11.5039C211.428 11.0739 211.558 10.6537 211.8 10.2983L213.736 7.45484C213.802 7.35848 213.89 7.27959 213.993 7.22506C214.096 7.17053 214.211 7.14202 214.327 7.142H220.039C220.143 7.14159 220.245 7.16403 220.34 7.20772C220.434 7.25141 220.517 7.31529 220.584 7.39485L223.013 10.444C223.095 10.5476 223.205 10.6263 223.33 10.6711L228.571 12.5546V16.4272ZM226.111 2.85651C226.111 2.47765 226.261 2.1143 226.529 1.84641C226.797 1.57851 227.16 1.42801 227.539 1.42801H230C229.719 0.937125 229.297 0.541438 228.79 0.291687C228.282 0.041937 227.711 -0.0504928 227.151 0.0262499C226.59 0.102993 226.065 0.34541 225.643 0.722417C225.221 1.09942 224.922 1.59384 224.783 2.14226H220V3.57076H224.783C224.922 4.11918 225.221 4.61359 225.643 4.9906C226.065 5.36761 226.59 5.61002 227.151 5.68677C227.711 5.76351 228.282 5.67108 228.79 5.42133C229.297 5.17158 229.719 4.77589 230 4.28501H227.539C227.16 4.28501 226.797 4.1345 226.529 3.86661C226.261 3.59871 226.111 3.23537 226.111 2.85651Z" fill="#E2E2E2"/>
<path d="M283.85 15.1C284.7 14.45 285.65 13.9373 286.7 13.562C287.75 13.1873 288.85 13 290 13C291.15 13 292.25 13.1873 293.3 13.562C294.35 13.9373 295.3 14.45 296.15 15.1C296.733 14.4167 297.188 13.6417 297.513 12.775C297.838 11.9083 298 10.9833 298 10C298 7.78333 297.221 5.89567 295.663 4.337C294.104 2.779 292.217 2 290 2C287.783 2 285.896 2.779 284.338 4.337C282.779 5.89567 282 7.78333 282 10C282 10.9833 282.163 11.9083 282.488 12.775C282.813 13.6417 283.267 14.4167 283.85 15.1ZM290 11C289.017 11 288.187 10.6627 287.512 9.988C286.837 9.31267 286.5 8.48333 286.5 7.5C286.5 6.51667 286.837 5.68733 287.512 5.012C288.187 4.33733 289.017 4 290 4C290.983 4 291.813 4.33733 292.488 5.012C293.163 5.68733 293.5 6.51667 293.5 7.5C293.5 8.48333 293.163 9.31267 292.488 9.988C291.813 10.6627 290.983 11 290 11ZM290 20C288.617 20 287.317 19.7373 286.1 19.212C284.883 18.6873 283.825 17.975 282.925 17.075C282.025 16.175 281.313 15.1167 280.788 13.9C280.263 12.6833 280 11.3833 280 10C280 8.61667 280.263 7.31667 280.788 6.1C281.313 4.88333 282.025 3.825 282.925 2.925C283.825 2.025 284.883 1.31233 286.1 0.787C287.317 0.262333 288.617 0 290 0C291.383 0 292.683 0.262333 293.9 0.787C295.117 1.31233 296.175 2.025 297.075 2.925C297.975 3.825 298.687 4.88333 299.212 6.1C299.737 7.31667 300 8.61667 300 10C300 11.3833 299.737 12.6833 299.212 13.9C298.687 15.1167 297.975 16.175 297.075 17.075C296.175 17.975 295.117 18.6873 293.9 19.212C292.683 19.7373 291.383 20 290 20ZM290 18C290.883 18 291.717 17.871 292.5 17.613C293.283 17.3543 294 16.9833 294.65 16.5C294 16.0167 293.283 15.6457 292.5 15.387C291.717 15.129 290.883 15 290 15C289.117 15 288.283 15.129 287.5 15.387C286.717 15.6457 286 16.0167 285.35 16.5C286 16.9833 286.717 17.3543 287.5 17.613C288.283 17.871 289.117 18 290 18ZM290 9C290.433 9 290.792 8.85833 291.075 8.575C291.358 8.29167 291.5 7.93333 291.5 7.5C291.5 7.06667 291.358 6.70833 291.075 6.425C290.792 6.14167 290.433 6 290 6C289.567 6 289.208 6.14167 288.925 6.425C288.642 6.70833 288.5 7.06667 288.5 7.5C288.5 7.93333 288.642 8.29167 288.925 8.575C289.208 8.85833 289.567 9 290 9Z" fill="#E2E2E2"/>
</svg>
