<svg width="21" height="21" viewBox="0 0 21 21" fill="none" xmlns="http://www.w3.org/2000/svg">
<path fill-rule="evenodd" clip-rule="evenodd" d="M2.00832 9.0756C2.00832 5.17846 5.17946 2.00832 9.07661 2.00832C12.9727 2.00832 16.1439 5.17846 16.1439 9.0756C16.1439 12.9727 12.9727 16.1439 9.07661 16.1439C5.17946 16.1439 2.00832 12.9727 2.00832 9.0756ZM20.5803 19.5781L15.9621 14.972C17.3238 13.3845 18.1522 11.3269 18.1522 9.0756C18.1522 4.07187 14.0803 0 9.07661 0C4.07187 0 0 4.07187 0 9.0756C0 14.0803 4.07187 18.1522 9.07661 18.1522C11.107 18.1522 12.9778 17.4734 14.491 16.3417L19.1624 21L20.5803 19.5781Z" fill="#363638"/>
</svg>
