<svg width="20" height="19" viewBox="0 0 20 19" fill="none" xmlns="http://www.w3.org/2000/svg">
<path d="M19.6463 17.8439C18.201 15.3452 15.9737 13.5534 13.3744 12.7041C14.6601 11.9387 15.6591 10.7723 16.2178 9.38425C16.7765 7.99616 16.8642 6.46303 16.4672 5.02031C16.0703 3.57759 15.2108 2.30505 14.0206 1.39812C12.8305 0.491183 11.3755 0 9.87918 0C8.38285 0 6.9279 0.491183 5.73774 1.39812C4.54759 2.30505 3.68805 3.57759 3.29113 5.02031C2.8942 6.46303 2.98184 7.99616 3.54057 9.38425C4.09931 10.7723 5.09825 11.9387 6.38399 12.7041C3.78467 13.5525 1.55735 15.3442 0.112017 17.8439C0.0590141 17.9303 0.0238576 18.0265 0.00862189 18.1267C-0.00661386 18.2269 -0.00162021 18.3292 0.0233082 18.4275C0.0482366 18.5257 0.0925948 18.618 0.153766 18.6989C0.214936 18.7797 0.291681 18.8475 0.37947 18.8982C0.46726 18.9489 0.564317 18.9815 0.664915 18.9941C0.765513 19.0067 0.867614 18.999 0.965193 18.9715C1.06277 18.944 1.15386 18.8972 1.23307 18.834C1.31228 18.7707 1.37801 18.6922 1.42639 18.6031C3.21432 15.5131 6.3745 13.6683 9.87918 13.6683C13.3839 13.6683 16.544 15.5131 18.332 18.6031C18.3804 18.6922 18.4461 18.7707 18.5253 18.834C18.6045 18.8972 18.6956 18.944 18.7932 18.9715C18.8907 18.999 18.9928 19.0067 19.0934 18.9941C19.194 18.9815 19.2911 18.9489 19.3789 18.8982C19.4667 18.8475 19.5434 18.7797 19.6046 18.6989C19.6658 18.618 19.7101 18.5257 19.7351 18.4275C19.76 18.3292 19.765 18.2269 19.7497 18.1267C19.7345 18.0265 19.6993 17.9303 19.6463 17.8439ZM4.56475 6.83542C4.56475 5.78432 4.87644 4.75683 5.46039 3.88288C6.04435 3.00893 6.87435 2.32776 7.84544 1.92553C8.81652 1.52329 9.88508 1.41805 10.916 1.62311C11.9469 1.82816 12.8938 2.33431 13.637 3.07755C14.3803 3.82079 14.8864 4.76773 15.0915 5.79863C15.2966 6.82952 15.1913 7.89808 14.7891 8.86916C14.3868 9.84025 13.7057 10.6702 12.8317 11.2542C11.9578 11.8382 10.9303 12.1498 9.87918 12.1498C8.47017 12.1483 7.1193 11.5879 6.12298 10.5916C5.12665 9.5953 4.56626 8.24443 4.56475 6.83542Z" fill="#A6A6A6"/>
</svg>
