<svg width="52" height="52" viewBox="0 0 52 52" fill="none" xmlns="http://www.w3.org/2000/svg">
<path d="M27.3718 31.3515C27.1644 31.3515 27.0288 31.4233 26.8215 31.4233V33.9755C26.957 34.0472 27.1644 34.0472 27.308 34.0472C28.0018 34.0472 28.4804 33.5607 28.4804 32.6675C28.4804 31.7742 28.0656 31.3515 27.3718 31.3515ZM27.1644 35.2196C26.4067 35.2196 25.7129 35.0841 25.027 34.8767V28.1135H26.7497V30.3865C27.0288 30.3147 27.3718 30.2509 27.6509 30.2509C29.1662 30.2509 30.1392 31.0804 30.1392 32.5319C30.2031 34.3902 29.1662 35.2196 27.1644 35.2196Z" fill="black"/>
<path d="M33.7282 32.8748C32.7632 32.9466 32.0693 33.0104 32.0693 33.5687C32.0693 33.9834 32.484 34.1908 33.1061 34.1908C33.3135 34.1908 33.5208 34.1908 33.7282 34.119V32.8748ZM33.1779 35.1558C31.3834 35.1558 30.4822 34.6055 30.4822 33.5687C30.4822 32.3245 32.0693 31.9816 33.8 31.9098V31.7025C33.8 31.2877 33.457 31.1521 32.8987 31.1521C32.3405 31.1521 31.7902 31.2877 31.2398 31.4313L30.8251 30.4663C31.5828 30.1871 32.3405 30.0515 33.1061 30.0515C34.6932 30.0515 35.4509 30.6018 35.4509 31.846V34.7491C34.6932 35.0841 33.9356 35.2196 33.1779 35.1558Z" fill="black"/>
<path d="M39.2552 35.084V31.9736C39.2552 31.5589 39.0479 31.2798 38.4258 31.2798C38.2184 31.2798 38.0111 31.3515 37.8037 31.4153V35.0761H36.081V30.5221C36.8387 30.2429 37.6681 30.1074 38.4976 30.1074C40.292 30.1074 41.1215 30.7294 41.1215 31.7663V35.084H39.2552Z" fill="black"/>
<path d="M45.2608 35.0841L43.4663 32.7393V35.0841H41.7356V28.1135H43.4663V32.3883L45.0534 30.3227H47.0552L45.2608 32.5319L47.1908 35.0841H45.2608Z" fill="black"/>
<path d="M21.7092 37.0141H19.9147L20.7442 35.084L18.6068 30.3227H20.5368L21.6454 33.7043L22.8178 30.3227H24.7479L21.7092 37.0141Z" fill="black"/>
<path d="M12.6012 28.6638H10.5276L9.21168 32.6675L7.83192 28.6638H5.7583L4.86505 35.084H6.52395L7.07425 30.6656L8.66137 35.084H9.76996L11.2853 30.6656L11.8356 35.084H13.4945L12.6012 28.6638Z" fill="black"/>
<path d="M17.0196 32.8748C16.0546 32.9466 15.3607 33.0104 15.3607 33.5687C15.3607 33.9834 15.7754 34.1908 16.3975 34.1908C16.6049 34.1908 16.8123 34.1908 17.0196 34.119V32.8748ZM16.4613 35.1558C14.6669 35.1558 13.7656 34.6055 13.7656 33.5687C13.7656 32.3245 15.3527 31.9816 17.0834 31.9098V31.7025C17.0834 31.2877 16.7405 31.1521 16.1822 31.1521C15.6239 31.1521 15.0736 31.2877 14.5233 31.4313L14.1165 30.4583C14.8742 30.2509 15.6319 30.1153 16.3975 30.0436C17.9846 30.0436 18.7423 30.5939 18.7423 31.838V34.7411C17.9846 35.0841 17.227 35.2196 16.4613 35.1558Z" fill="black"/>
<path d="M31.4472 20.1699C31.4472 23.1368 29.0307 25.5534 26.0638 25.5534C23.0969 25.5534 20.6804 23.1368 20.6804 20.1699C20.6804 17.2031 23.0969 14.7865 26.0638 14.7865C29.0307 14.7865 31.4472 17.2031 31.4472 20.1699Z" fill="#FFC600"/>
<path d="M26.0638 25.5534C23.0969 25.5534 20.6804 23.1368 20.6804 20.1699C20.6804 17.2031 23.0969 14.7865 26.0638 14.7865C29.0307 14.7865 31.4472 17.2031 31.4472 20.1699C31.4472 23.1368 29.0307 25.4896 26.0638 25.5534ZM26.0638 14.3C22.8178 14.3 20.1938 16.9239 20.1938 20.1699C20.1938 23.4159 22.8178 26.0399 26.0638 26.0399C29.3098 26.0399 31.9337 23.4159 31.9337 20.1699C31.9337 16.9239 29.3098 14.3 26.0638 14.3Z" fill="black"/>
<path d="M23.7111 19.8908C23.2963 19.819 22.9534 20.3055 22.746 20.6485C22.8178 20.0982 23.4399 19.2687 23.7111 19.8908Z" fill="black"/>
<path d="M22.8178 19.8908C22.9534 19.4043 23.3043 19.1969 23.4399 19.3405C23.1608 19.4761 22.9534 19.6196 22.8178 19.8908Z" fill="black"/>
<path d="M23.8546 20.6564C24.062 20.4491 24.062 20.2417 23.719 20.1061C23.3761 19.9706 22.9614 20.5209 22.8896 21.0074C23.0969 20.7202 23.7111 20.2417 23.8546 20.6564Z" fill="black"/>
<path d="M27.2362 21.9644C27.308 21.3423 26.6859 20.9994 26.5423 20.3773C26.4068 19.7552 27.5074 18.7184 26.8215 17.6178C28.1374 18.6546 27.1006 19.2767 27.7227 20.1061C27.5154 20.0344 27.308 19.8988 27.1724 19.6914C26.8215 20.1699 28.0657 20.792 27.2362 21.9644Z" fill="black"/>
<path d="M25.1626 16.8521C25.2982 16.8521 25.5773 16.9877 25.5055 17.0595C25.1626 17.4025 24.6761 17.2669 24.2614 17.6098C24.4049 17.2031 25.0988 17.1313 25.1626 16.8521Z" fill="black"/>
<path d="M24.7478 18.2319C24.6761 18.2319 24.6761 18.1601 24.6761 18.0963C24.7478 18.2319 24.8834 18.1681 24.8116 17.9607H25.0908C24.8914 18.0245 24.8196 18.2319 24.7478 18.2319ZM26.3349 17.2669C26.4705 17.1313 26.3349 16.8521 25.7129 16.7804C26.3349 17.0595 25.2981 17.1233 25.2981 17.6816C24.9552 17.8172 24.6761 17.6098 24.5405 17.7534C24.4049 17.8969 24.1975 17.8252 24.2613 17.6178C24.1257 17.6896 24.1257 17.8252 24.1896 17.9607C24.1896 18.0325 24.2613 18.0325 24.3251 18.0963L24.3969 18.1681C24.1896 18.3755 24.1178 18.511 24.3251 18.7184C24.3969 18.5828 24.5325 18.4393 24.6681 18.3037C24.8037 18.3755 25.011 18.3037 25.2902 18.0245C25.0828 18.854 24.4607 18.9258 24.2534 18.9258C24.3889 19.0614 25.1546 19.2049 25.2184 18.854C25.4257 18.0963 26.1834 17.7454 25.5613 17.7454C25.5773 17.6178 26.1994 17.4104 26.3349 17.2669Z" fill="black"/>
<path d="M26.6141 16.9239C26.8933 17.0595 27.1006 17.2669 27.2362 17.4742C27.308 17.0595 27.1006 16.6448 26.8215 16.3656C26.7497 16.3018 26.5423 16.7166 26.6141 16.9239Z" fill="black"/>
<path d="M21.781 19.4761C22.0601 18.7822 22.6105 18.2319 23.2325 17.889C23.4399 17.4025 23.3681 17.1313 25.2344 16.3736C25.3062 16.0945 25.3062 15.7515 25.37 15.7515C25.5773 15.8233 25.7847 15.9589 25.9203 16.1663H26.1276C26.1994 15.8871 26.2632 15.616 26.4068 15.3368C26.5424 15.1295 26.8215 15.1294 27.1644 15.4086C27.5792 15.6877 27.9221 16.0307 28.273 16.4454C28.8951 16.6528 29.4454 17.0675 29.8601 17.554C29.6528 17.4184 29.3736 17.3466 29.1025 17.2748C29.6528 17.7614 29.8601 18.5908 29.6528 19.2767C29.5172 18.5828 29.1025 18.0325 28.5442 17.7614C28.7516 18.519 27.8503 18.2479 27.5074 17.6896C27.5792 17.7614 27.643 17.7614 27.7865 17.6896C27.7865 16.9319 27.5074 16.238 26.9571 15.6877C26.6779 15.4086 26.4706 16.0307 26.4068 16.5172C26.4068 16.6528 26.1994 16.7963 26.0638 16.7963C26.1356 16.7245 26.1356 16.6607 26.1356 16.5172C25.6491 16.589 25.2344 16.7245 24.8197 17.0037C23.9902 17.3466 23.7828 17.554 23.5755 18.1761C22.8178 18.4393 22.2675 18.9258 21.781 19.4761Z" fill="black"/>
<path d="M25.9282 19.3405C26.3429 19.9626 26.3429 20.7202 25.9282 21.3423C26.0638 20.5847 25.5853 19.0614 25.0988 19.827C25.3779 19.8988 25.5853 20.2417 25.5135 20.5847C25.3779 20.2417 24.9632 20.0982 24.6123 20.1699C24.4049 20.2417 24.1258 20.1699 23.9902 19.9626C23.7828 19.6196 24.1258 19.2049 23.4399 19.2049C24.2693 18.7902 24.062 19.6196 24.4049 19.6914C24.7479 19.7632 24.9552 19.4841 25.0988 19.3485C25.2344 19.1411 25.5135 19.0693 25.7209 19.2129C25.8564 18.8699 25.6491 18.2479 26 17.9687C26.2074 17.8331 26.5503 17.8969 26.7577 18.0405C26.4785 18.0245 26.1276 18.3755 25.9282 19.3405Z" fill="black"/>
<path d="M24.062 22.6583C23.9902 22.5865 23.9264 22.4509 23.9264 22.3153C23.9982 22.3871 24.1337 22.4509 24.2693 22.4509C24.1975 22.5865 24.1258 22.6583 24.062 22.6583ZM24.8914 21.7571C24.9632 21.7571 25.027 21.8288 25.0988 21.7571C25.1705 21.6853 25.0988 21.4779 25.027 21.4141C25.0988 21.4141 25.3699 21.4141 25.3699 21.5497C25.3699 21.8288 25.1626 21.8926 24.7478 22.1C24.8196 22.0362 24.8196 21.8926 24.8914 21.7571ZM23.2325 21.4779C23.3043 21.4061 23.3681 21.3423 23.5117 21.2706C23.5117 21.4779 23.5117 21.6135 23.5834 21.8209C23.5037 21.8926 23.2325 21.6853 23.2325 21.4779ZM22.1239 20.4491C21.9883 20.3135 21.8448 20.1699 21.7092 20.0344C21.781 19.9626 21.9166 19.827 22.0521 19.827C22.1877 19.827 22.2595 19.8988 22.1877 19.8988C22.1159 19.8988 22.0521 19.8988 22.0521 20.0344C22.0521 20.1699 22.1239 20.2417 22.1877 20.3135C22.2675 20.3055 22.1957 20.4491 22.1239 20.4491ZM30.1393 17.8252C30.554 19.0693 30.4822 20.3773 30.0037 21.5577C30.0755 21.0074 29.589 20.2417 29.7963 19.3485C28.8951 20.1779 30.2828 22.3153 28.281 23.6951C28.5601 23.0012 28.6957 22.3153 28.6239 21.5577C28.7595 21.6294 28.8313 21.6933 28.9031 21.8368C29.1104 21.1429 29.0386 20.3853 28.7675 19.6994C28.9031 19.6994 29.1104 19.835 29.1822 19.9068C29.254 18.6626 28.3528 18.5908 28.1454 18.2479C28.1454 18.5908 28.5601 18.8699 28.6319 19.3564C28.4245 19.2209 28.1454 19.2209 27.938 19.2209C28.4245 19.7712 28.6319 20.465 28.4883 21.1509C28.281 21.0153 28.0736 20.8718 27.8663 20.8718C28.2092 21.4939 28.2092 22.1877 27.938 22.8018C27.938 22.5945 27.8663 22.3871 27.8025 22.2515C27.6669 22.738 27.3159 23.081 26.8374 23.1528C27.1804 22.8736 27.1804 22.3233 26.9092 22.0442C26.8374 21.9724 26.7018 21.9086 26.6301 21.8368C26.0798 21.6294 25.4577 21.9724 25.1785 23.2166C24.8356 23.3521 23.6632 23.081 24.3491 22.3871C24.7638 22.5227 25.8006 21.8368 25.7288 21.3503C25.5932 20.8 25.1067 20.3853 24.4847 20.4491C23.8626 20.4491 23.4478 20.9994 22.9693 21.2785C22.5546 21.2068 22.419 21.1429 22.2117 20.5847C22.2117 20.2417 22.5546 20.0344 22.5546 19.6834C22.2755 19.7552 22.2117 19.2687 21.5896 19.7552C21.5178 19.6834 21.5896 19.4761 21.5896 19.4761C21.454 19.6117 21.3822 19.7552 21.3104 19.9626C21.446 20.1699 21.5896 20.3773 21.8607 20.5129C22.2037 21.4141 22.5546 21.5497 22.8975 21.5497C23.0331 21.7571 23.3123 21.9644 23.5914 22.0362C23.5196 21.7571 23.5196 21.5497 23.5914 21.2785C24.3491 20.5209 24.9074 20.9994 24.9712 21.2067C24.3491 21.3423 24.7638 22.7221 23.727 22.108C23.727 22.3153 23.727 22.5945 23.8626 22.8018C23.9982 23.7669 25.1785 23.4957 25.5215 23.7031C25.4497 22.8018 26.008 22.116 26.4227 22.1877C26.8374 22.2595 26.973 22.9454 26.2153 23.6393C26.7018 23.711 27.1804 23.5675 27.5951 23.2963C27.5233 23.8466 27.3159 24.3331 26.973 24.7479C29.5251 24.1975 31.1123 21.7092 30.562 19.1571C30.554 18.6466 30.4104 18.1681 30.1393 17.8252Z" fill="black"/>
</svg>
